<svg xmlns="http://www.w3.org/2000/svg" xmlns:xlink="http://www.w3.org/1999/xlink" width="500" zoomAndPan="magnify" viewBox="0 0 375 374.999991" height="500" preserveAspectRatio="xMidYMid meet" version="1.0"><defs><g/><clipPath id="390fcb62d8"><path d="M 64.792969 205.386719 L 304.597656 205.386719 L 304.597656 206.097656 L 64.792969 206.097656 Z M 303.871094 206.097656 L 304.597656 206.097656 L 304.597656 232.847656 L 303.871094 232.847656 Z M 64.792969 206.097656 L 65.507812 206.097656 L 65.507812 232.847656 L 64.792969 232.847656 Z M 64.792969 232.847656 L 304.597656 232.847656 L 304.597656 233.578125 L 64.792969 233.578125 Z M 64.792969 232.847656 " clip-rule="nonzero"/></clipPath></defs><g clip-path="url(#390fcb62d8)"><path fill="#ffffff" d="M 64.792969 205.386719 L 304.617188 205.386719 L 304.617188 233.601562 L 64.792969 233.601562 Z M 64.792969 205.386719 " fill-opacity="1" fill-rule="nonzero"/></g><g fill="#ffffff" fill-opacity="1"><g transform="translate(77.564288, 223.213839)"><g><path d="M 4.996094 0.113281 C 6.605469 0.113281 8.003906 -0.769531 8.746094 -2.070312 L 7.976562 -2.503906 C 7.402344 -1.46875 6.285156 -0.785156 4.996094 -0.785156 C 3.105469 -0.785156 1.582031 -2.296875 1.582031 -4.199219 C 1.582031 -6.101562 3.105469 -7.613281 4.996094 -7.613281 C 6.285156 -7.613281 7.402344 -6.929688 7.976562 -5.890625 L 8.746094 -6.324219 C 8.003906 -7.628906 6.605469 -8.507812 4.996094 -8.507812 C 2.617188 -8.507812 0.6875 -6.578125 0.6875 -4.199219 C 0.6875 -1.820312 2.617188 0.113281 4.996094 0.113281 Z M 4.996094 0.113281 "/></g></g></g><g fill="#ffffff" fill-opacity="1"><g transform="translate(95.451051, 223.213839)"><g><path d="M 1.917969 -0.894531 L 1.917969 -8.398438 L 1.023438 -8.398438 L 1.023438 0 L 5.039062 0 L 5.039062 -0.894531 Z M 1.917969 -0.894531 "/></g></g></g><g fill="#ffffff" fill-opacity="1"><g transform="translate(109.293011, 223.213839)"><g><path d="M 4.996094 0.113281 C 7.390625 0.113281 9.308594 -1.820312 9.308594 -4.199219 C 9.308594 -6.578125 7.390625 -8.507812 4.996094 -8.507812 C 2.617188 -8.507812 0.6875 -6.578125 0.6875 -4.199219 C 0.6875 -1.820312 2.617188 0.113281 4.996094 0.113281 Z M 4.996094 -0.785156 C 3.105469 -0.785156 1.582031 -2.296875 1.582031 -4.199219 C 1.582031 -6.101562 3.105469 -7.613281 4.996094 -7.613281 C 6.898438 -7.613281 8.410156 -6.101562 8.410156 -4.199219 C 8.410156 -2.296875 6.898438 -0.785156 4.996094 -0.785156 Z M 4.996094 -0.785156 "/></g></g></g><g fill="#ffffff" fill-opacity="1"><g transform="translate(127.977541, 223.213839)"><g><path d="M 5.667969 -8.398438 L 0.125 -8.398438 L 0.125 -7.5 L 2.449219 -7.5 L 2.449219 0 L 3.34375 0 L 3.34375 -7.5 L 5.667969 -7.5 Z M 5.667969 -8.398438 "/></g></g></g><g fill="#ffffff" fill-opacity="1"><g transform="translate(142.449312, 223.213839)"><g><path d="M 6.550781 -8.398438 L 6.550781 -4.648438 L 1.917969 -4.648438 L 1.917969 -8.398438 L 1.023438 -8.398438 L 1.023438 0 L 1.917969 0 L 1.917969 -3.75 L 6.550781 -3.75 L 6.550781 0 L 7.445312 0 L 7.445312 -8.398438 Z M 6.550781 -8.398438 "/></g></g></g><g fill="#ffffff" fill-opacity="1"><g transform="translate(159.594289, 223.213839)"><g><path d="M 1.089844 0 L 1.988281 0 L 1.988281 -8.398438 L 1.089844 -8.398438 Z M 1.089844 0 "/></g></g></g><g fill="#ffffff" fill-opacity="1"><g transform="translate(171.336875, 223.213839)"><g><path d="M 7.054688 -8.398438 L 7.054688 -1.496094 L 1.863281 -8.398438 L 1.023438 -8.398438 L 1.023438 0 L 1.917969 0 L 1.917969 -6.898438 L 7.097656 0 L 7.9375 0 L 7.9375 -8.398438 Z M 7.054688 -8.398438 "/></g></g></g><g fill="#ffffff" fill-opacity="1"><g transform="translate(188.971711, 223.213839)"><g><path d="M 5.023438 -4.449219 L 5.023438 -3.609375 L 8.398438 -3.609375 C 8.132812 -1.988281 6.730469 -0.785156 5.039062 -0.785156 C 3.148438 -0.785156 1.625 -2.296875 1.625 -4.199219 C 1.625 -6.101562 3.148438 -7.613281 5.039062 -7.613281 C 6.3125 -7.613281 7.433594 -6.929688 8.003906 -5.890625 L 8.773438 -6.324219 C 8.046875 -7.628906 6.648438 -8.507812 5.039062 -8.507812 C 2.644531 -8.507812 0.726562 -6.578125 0.726562 -4.199219 C 0.726562 -1.820312 2.644531 0.113281 5.039062 0.113281 C 7.417969 0.113281 9.347656 -1.820312 9.347656 -4.199219 L 9.347656 -4.449219 Z M 5.023438 -4.449219 "/></g></g></g><g fill="#ffffff" fill-opacity="1"><g transform="translate(207.712222, 223.213839)"><g/></g></g><g fill="#ffffff" fill-opacity="1"><g transform="translate(219.762715, 223.213839)"><g><path d="M 3.136719 0.113281 C 4.5625 0.113281 5.722656 -0.742188 5.722656 -2.210938 C 5.722656 -5.066406 1.636719 -4.367188 1.636719 -6.367188 C 1.636719 -7.207031 2.324219 -7.613281 3.105469 -7.613281 C 3.75 -7.613281 4.28125 -7.347656 4.617188 -6.871094 L 5.320312 -7.460938 C 4.855469 -8.046875 4.042969 -8.507812 3.078125 -8.507812 C 1.792969 -8.507812 0.742188 -7.667969 0.742188 -6.296875 C 0.742188 -3.597656 4.828125 -4.269531 4.828125 -2.183594 C 4.828125 -1.289062 4.085938 -0.785156 3.148438 -0.785156 C 2.199219 -0.785156 1.511719 -1.300781 1.21875 -2.070312 L 0.40625 -1.59375 C 0.839844 -0.558594 1.890625 0.113281 3.136719 0.113281 Z M 3.136719 0.113281 "/></g></g></g><g fill="#ffffff" fill-opacity="1"><g transform="translate(234.570399, 223.213839)"><g><path d="M 5.667969 -8.398438 L 0.125 -8.398438 L 0.125 -7.5 L 2.449219 -7.5 L 2.449219 0 L 3.34375 0 L 3.34375 -7.5 L 5.667969 -7.5 Z M 5.667969 -8.398438 "/></g></g></g><g fill="#ffffff" fill-opacity="1"><g transform="translate(249.042171, 223.213839)"><g><path d="M 4.996094 0.113281 C 7.390625 0.113281 9.308594 -1.820312 9.308594 -4.199219 C 9.308594 -6.578125 7.390625 -8.507812 4.996094 -8.507812 C 2.617188 -8.507812 0.6875 -6.578125 0.6875 -4.199219 C 0.6875 -1.820312 2.617188 0.113281 4.996094 0.113281 Z M 4.996094 -0.785156 C 3.105469 -0.785156 1.582031 -2.296875 1.582031 -4.199219 C 1.582031 -6.101562 3.105469 -7.613281 4.996094 -7.613281 C 6.898438 -7.613281 8.410156 -6.101562 8.410156 -4.199219 C 8.410156 -2.296875 6.898438 -0.785156 4.996094 -0.785156 Z M 4.996094 -0.785156 "/></g></g></g><g fill="#ffffff" fill-opacity="1"><g transform="translate(267.726701, 223.213839)"><g><path d="M 4.421875 -3.835938 C 5.527344 -3.988281 6.367188 -4.914062 6.367188 -6.046875 C 6.367188 -7.363281 5.320312 -8.398438 4.03125 -8.398438 L 1.023438 -8.398438 L 1.023438 0 L 1.917969 0 L 1.917969 -3.792969 L 3.5 -3.792969 L 5.878906 0 L 6.898438 0 Z M 1.917969 -4.648438 L 1.917969 -7.5 L 3.976562 -7.5 C 4.816406 -7.5 5.472656 -6.914062 5.472656 -6.074219 C 5.472656 -5.21875 4.828125 -4.648438 3.976562 -4.648438 Z M 1.917969 -4.648438 "/></g></g></g><g fill="#ffffff" fill-opacity="1"><g transform="translate(283.430118, 223.213839)"><g><path d="M 5.683594 -7.53125 L 5.683594 -8.398438 L 1.089844 -8.398438 L 1.089844 0 L 5.683594 0 L 5.683594 -0.867188 L 1.988281 -0.867188 L 1.988281 -3.765625 L 5.207031 -3.765625 L 5.207031 -4.632812 L 1.988281 -4.632812 L 1.988281 -7.53125 Z M 5.683594 -7.53125 "/></g></g></g><g fill="#ffffff" fill-opacity="1"><g transform="translate(65.887733, 190.563225)"><g><path d="M 11.84375 0.390625 C 8.726562 0.390625 6.234375 -0.582031 4.359375 -2.53125 C 2.484375 -4.488281 1.546875 -7.175781 1.546875 -10.59375 L 1.546875 -30.3125 C 1.546875 -34.550781 2.390625 -37.75 4.078125 -39.90625 C 5.773438 -42.0625 8.429688 -43.140625 12.046875 -43.140625 C 15.191406 -43.140625 17.726562 -42.273438 19.65625 -40.546875 C 21.582031 -38.828125 22.546875 -36.34375 22.546875 -33.09375 L 22.546875 -25.734375 L 14.03125 -25.734375 L 14.03125 -32.046875 C 14.03125 -33.273438 13.878906 -34.117188 13.578125 -34.578125 C 13.285156 -35.046875 12.773438 -35.28125 12.046875 -35.28125 C 11.285156 -35.28125 10.757812 -35.015625 10.46875 -34.484375 C 10.1875 -33.953125 10.046875 -33.175781 10.046875 -32.15625 L 10.046875 -10.703125 C 10.046875 -9.566406 10.210938 -8.742188 10.546875 -8.234375 C 10.878906 -7.722656 11.378906 -7.46875 12.046875 -7.46875 C 13.367188 -7.46875 14.03125 -8.546875 14.03125 -10.703125 L 14.03125 -18.40625 L 22.640625 -18.40625 L 22.640625 -10.34375 C 22.640625 -3.1875 19.039062 0.390625 11.84375 0.390625 Z M 11.84375 0.390625 "/></g></g></g><g fill="#ffffff" fill-opacity="1"><g transform="translate(90.716942, 190.563225)"><g><path d="M 7.0625 0 L 7.0625 -14.078125 L 0.25 -42.75 L 8.703125 -42.75 L 11.09375 -28.265625 L 13.484375 -42.75 L 21.953125 -42.75 L 15.125 -14.078125 L 15.125 0 Z M 7.0625 0 "/></g></g></g><g fill="#ffffff" fill-opacity="1"><g transform="translate(114.152928, 190.563225)"><g><path d="M 1.890625 -42.75 L 13.484375 -42.75 C 16.609375 -42.75 18.875 -41.984375 20.28125 -40.453125 C 21.6875 -38.929688 22.390625 -36.445312 22.390625 -33 L 22.390625 -31.109375 C 22.390625 -27.023438 20.929688 -24.582031 18.015625 -23.78125 C 19.804688 -23.320312 21.066406 -22.242188 21.796875 -20.546875 C 22.523438 -18.859375 22.890625 -16.617188 22.890625 -13.828125 C 22.890625 -9.285156 22.207031 -5.84375 20.84375 -3.5 C 19.488281 -1.164062 17.035156 0 13.484375 0 L 1.890625 0 Z M 12 -26.671875 C 12.726562 -26.671875 13.222656 -26.941406 13.484375 -27.484375 C 13.753906 -28.035156 13.890625 -28.8125 13.890625 -29.8125 L 13.890625 -34.09375 C 13.890625 -35.476562 13.273438 -36.171875 12.046875 -36.171875 L 10.25 -36.171875 L 10.25 -26.671875 Z M 11.09375 -7.515625 C 13.320312 -7.515625 14.4375 -8.578125 14.4375 -10.703125 L 14.4375 -16.03125 C 14.4375 -17.320312 14.242188 -18.296875 13.859375 -18.953125 C 13.472656 -19.617188 12.800781 -19.953125 11.84375 -19.953125 L 10.25 -19.953125 L 10.25 -7.5625 Z M 11.09375 -7.515625 "/></g></g></g><g fill="#ffffff" fill-opacity="1"><g transform="translate(139.230921, 190.563225)"><g><path d="M 1.890625 0 L 1.890625 -42.75 L 19.015625 -42.75 L 19.015625 -34.484375 L 10.59375 -34.484375 L 10.59375 -26.171875 L 18.65625 -26.171875 L 18.65625 -18.109375 L 10.59375 -18.109375 L 10.59375 -8.3125 L 19.5625 -8.3125 L 19.5625 0 Z M 1.890625 0 "/></g></g></g><g fill="#ffffff" fill-opacity="1"><g transform="translate(160.975139, 190.563225)"><g><path d="M 1.890625 -42.75 L 15.03125 -42.75 C 17.125 -42.75 18.738281 -42.273438 19.875 -41.328125 C 21.019531 -40.378906 21.789062 -39.050781 22.1875 -37.34375 C 22.59375 -35.632812 22.796875 -33.457031 22.796875 -30.8125 C 22.796875 -28.382812 22.476562 -26.488281 21.84375 -25.125 C 21.21875 -23.769531 20.125 -22.828125 18.5625 -22.296875 C 19.851562 -22.023438 20.789062 -21.375 21.375 -20.34375 C 21.957031 -19.320312 22.25 -17.929688 22.25 -16.171875 L 22.140625 0 L 13.78125 0 L 13.78125 -16.71875 C 13.78125 -17.914062 13.546875 -18.679688 13.078125 -19.015625 C 12.617188 -19.347656 11.773438 -19.515625 10.546875 -19.515625 L 10.546875 0 L 1.890625 0 Z M 12.640625 -26.921875 C 13.835938 -26.921875 14.4375 -28.21875 14.4375 -30.8125 C 14.4375 -31.9375 14.382812 -32.78125 14.28125 -33.34375 C 14.1875 -33.90625 14.003906 -34.289062 13.734375 -34.5 C 13.472656 -34.71875 13.09375 -34.828125 12.59375 -34.828125 L 10.59375 -34.828125 L 10.59375 -26.921875 Z M 12.640625 -26.921875 "/></g></g></g><path stroke-linecap="butt" transform="matrix(0.933049, 0, 0, 0.933049, 190.299134, 136.446377)" fill="none" stroke-linejoin="miter" d="M 5.599174 57.999223 L 0.688359 12.194258 L 9.647561 12.194258 L 12.213911 41.09815 L 14.776076 12.194258 L 23.304063 12.194258 L 25.753191 41.09815 L 28.214878 12.194258 L 37.274557 12.194258 L 32.263265 57.999223 L 21.27359 57.999223 L 18.983551 35.919396 L 16.793989 57.999223 Z M 41.335503 57.999223 L 41.335503 12.194258 L 59.680934 12.194258 L 59.680934 21.036236 L 50.654748 21.036236 L 50.654748 29.953573 L 59.299959 29.953573 L 59.299959 38.586224 L 50.654748 38.586224 L 50.654748 49.094447 L 60.26705 49.094447 L 60.26705 57.999223 Z M 63.402771 57.999223 L 67.827947 12.194258 L 83.347461 12.194258 L 87.722398 57.999223 L 79.039508 57.999223 L 78.386408 50.593229 L 72.839238 50.593229 L 72.307547 57.999223 Z M 73.542578 43.287712 L 77.695628 43.287712 L 75.677714 19.981228 L 75.250687 19.981228 Z M 91.83777 12.194258 L 105.90874 12.194258 C 108.148541 12.194258 109.88177 12.705016 111.10424 13.71816 C 112.33927 14.727116 113.168206 16.146354 113.591046 17.975874 C 114.018074 19.809579 114.231588 22.14567 114.231588 24.992519 C 114.231588 27.588176 113.892478 29.614463 113.214258 31.075566 C 112.536038 32.52411 111.367992 33.537253 109.697562 34.106623 C 111.087494 34.395495 112.092264 35.090461 112.707686 36.191522 C 113.331481 37.292582 113.645472 38.787178 113.645472 40.671122 L 113.540808 57.999223 L 104.581606 57.999223 L 104.581606 40.085006 C 104.581606 38.799738 104.330414 37.979175 103.828029 37.623319 C 103.334017 37.267463 102.425537 37.091628 101.106776 37.091628 L 101.106776 57.999223 L 91.83777 57.999223 Z M 103.346576 29.14557 C 104.631845 29.14557 105.272386 27.764011 105.272386 24.992519 C 105.272386 23.778422 105.217961 22.869942 105.104924 22.271267 C 105.000261 21.664218 104.803493 21.24975 104.518808 21.023677 C 104.23831 20.78923 103.832215 20.672007 103.292151 20.672007 L 101.157014 20.672007 L 101.157014 29.14557 Z M 103.346576 29.14557 " stroke="#ffffff" stroke-width="1.099999" stroke-opacity="1" stroke-miterlimit="4"/></svg>