<svg xmlns="http://www.w3.org/2000/svg" xmlns:xlink="http://www.w3.org/1999/xlink" width="500" zoomAndPan="magnify" viewBox="0 0 375 374.999991" height="500" preserveAspectRatio="xMidYMid meet" version="1.0"><defs><g/><clipPath id="4f64688773"><path d="M 54.519531 207.292969 L 314.410156 207.292969 L 314.410156 208.0625 L 54.519531 208.0625 Z M 313.621094 208.0625 L 314.410156 208.0625 L 314.410156 237.054688 L 313.621094 237.054688 Z M 54.519531 208.0625 L 55.292969 208.0625 L 55.292969 237.054688 L 54.519531 237.054688 Z M 54.519531 237.054688 L 314.410156 237.054688 L 314.410156 237.84375 L 54.519531 237.84375 Z M 54.519531 237.054688 " clip-rule="nonzero"/></clipPath></defs><g clip-path="url(#4f64688773)"><path fill="#181818" d="M 54.519531 207.292969 L 314.433594 207.292969 L 314.433594 237.871094 L 54.519531 237.871094 Z M 54.519531 207.292969 " fill-opacity="1" fill-rule="nonzero"/></g><g fill="#181818" fill-opacity="1"><g transform="translate(68.360006, 226.612692)"><g><path d="M 5.414062 0.121094 C 7.160156 0.121094 8.675781 -0.835938 9.480469 -2.246094 L 8.644531 -2.714844 C 8.023438 -1.59375 6.808594 -0.847656 5.414062 -0.847656 C 3.367188 -0.847656 1.714844 -2.488281 1.714844 -4.550781 C 1.714844 -6.613281 3.367188 -8.25 5.414062 -8.25 C 6.808594 -8.25 8.023438 -7.507812 8.644531 -6.386719 L 9.480469 -6.855469 C 8.675781 -8.265625 7.160156 -9.222656 5.414062 -9.222656 C 2.835938 -9.222656 0.742188 -7.128906 0.742188 -4.550781 C 0.742188 -1.972656 2.835938 0.121094 5.414062 0.121094 Z M 5.414062 0.121094 "/></g></g></g><g fill="#181818" fill-opacity="1"><g transform="translate(87.74515, 226.612692)"><g><path d="M 2.078125 -0.972656 L 2.078125 -9.101562 L 1.105469 -9.101562 L 1.105469 0 L 5.460938 0 L 5.460938 -0.972656 Z M 2.078125 -0.972656 "/></g></g></g><g fill="#181818" fill-opacity="1"><g transform="translate(102.746657, 226.612692)"><g><path d="M 5.414062 0.121094 C 8.007812 0.121094 10.085938 -1.972656 10.085938 -4.550781 C 10.085938 -7.128906 8.007812 -9.222656 5.414062 -9.222656 C 2.835938 -9.222656 0.742188 -7.128906 0.742188 -4.550781 C 0.742188 -1.972656 2.835938 0.121094 5.414062 0.121094 Z M 5.414062 -0.847656 C 3.367188 -0.847656 1.714844 -2.488281 1.714844 -4.550781 C 1.714844 -6.613281 3.367188 -8.25 5.414062 -8.25 C 7.476562 -8.25 9.117188 -6.613281 9.117188 -4.550781 C 9.117188 -2.488281 7.476562 -0.847656 5.414062 -0.847656 Z M 5.414062 -0.847656 "/></g></g></g><g fill="#181818" fill-opacity="1"><g transform="translate(122.996398, 226.612692)"><g><path d="M 6.144531 -9.101562 L 0.136719 -9.101562 L 0.136719 -8.128906 L 2.65625 -8.128906 L 2.65625 0 L 3.625 0 L 3.625 -8.128906 L 6.144531 -8.128906 Z M 6.144531 -9.101562 "/></g></g></g><g fill="#181818" fill-opacity="1"><g transform="translate(138.680476, 226.612692)"><g><path d="M 7.097656 -9.101562 L 7.097656 -5.035156 L 2.078125 -5.035156 L 2.078125 -9.101562 L 1.105469 -9.101562 L 1.105469 0 L 2.078125 0 L 2.078125 -4.066406 L 7.097656 -4.066406 L 7.097656 0 L 8.070312 0 L 8.070312 -9.101562 Z M 7.097656 -9.101562 "/></g></g></g><g fill="#181818" fill-opacity="1"><g transform="translate(157.261694, 226.612692)"><g><path d="M 1.183594 0 L 2.152344 0 L 2.152344 -9.101562 L 1.183594 -9.101562 Z M 1.183594 0 "/></g></g></g><g fill="#181818" fill-opacity="1"><g transform="translate(169.987961, 226.612692)"><g><path d="M 7.644531 -9.101562 L 7.644531 -1.621094 L 2.015625 -9.101562 L 1.105469 -9.101562 L 1.105469 0 L 2.078125 0 L 2.078125 -7.476562 L 7.691406 0 L 8.601562 0 L 8.601562 -9.101562 Z M 7.644531 -9.101562 "/></g></g></g><g fill="#181818" fill-opacity="1"><g transform="translate(189.100074, 226.612692)"><g><path d="M 5.445312 -4.824219 L 5.445312 -3.914062 L 9.101562 -3.914062 C 8.8125 -2.152344 7.296875 -0.847656 5.460938 -0.847656 C 3.414062 -0.847656 1.757812 -2.488281 1.757812 -4.550781 C 1.757812 -6.613281 3.414062 -8.25 5.460938 -8.25 C 6.839844 -8.25 8.054688 -7.507812 8.675781 -6.386719 L 9.511719 -6.855469 C 8.722656 -8.265625 7.203125 -9.222656 5.460938 -9.222656 C 2.867188 -9.222656 0.789062 -7.128906 0.789062 -4.550781 C 0.789062 -1.972656 2.867188 0.121094 5.460938 0.121094 C 8.039062 0.121094 10.132812 -1.972656 10.132812 -4.550781 L 10.132812 -4.824219 Z M 5.445312 -4.824219 "/></g></g></g><g fill="#181818" fill-opacity="1"><g transform="translate(209.410485, 226.612692)"><g/></g></g><g fill="#181818" fill-opacity="1"><g transform="translate(222.470454, 226.612692)"><g><path d="M 3.398438 0.121094 C 4.945312 0.121094 6.203125 -0.804688 6.203125 -2.398438 C 6.203125 -5.492188 1.773438 -4.734375 1.773438 -6.902344 C 1.773438 -7.8125 2.519531 -8.25 3.367188 -8.25 C 4.066406 -8.25 4.640625 -7.964844 5.003906 -7.449219 L 5.765625 -8.085938 C 5.261719 -8.722656 4.382812 -9.222656 3.335938 -9.222656 C 1.941406 -9.222656 0.804688 -8.3125 0.804688 -6.824219 C 0.804688 -3.898438 5.234375 -4.625 5.234375 -2.367188 C 5.234375 -1.394531 4.429688 -0.847656 3.414062 -0.847656 C 2.382812 -0.847656 1.636719 -1.410156 1.320312 -2.246094 L 0.441406 -1.730469 C 0.910156 -0.605469 2.046875 0.121094 3.398438 0.121094 Z M 3.398438 0.121094 "/></g></g></g><g fill="#181818" fill-opacity="1"><g transform="translate(238.518583, 226.612692)"><g><path d="M 6.144531 -9.101562 L 0.136719 -9.101562 L 0.136719 -8.128906 L 2.65625 -8.128906 L 2.65625 0 L 3.625 0 L 3.625 -8.128906 L 6.144531 -8.128906 Z M 6.144531 -9.101562 "/></g></g></g><g fill="#181818" fill-opacity="1"><g transform="translate(254.202661, 226.612692)"><g><path d="M 5.414062 0.121094 C 8.007812 0.121094 10.085938 -1.972656 10.085938 -4.550781 C 10.085938 -7.128906 8.007812 -9.222656 5.414062 -9.222656 C 2.835938 -9.222656 0.742188 -7.128906 0.742188 -4.550781 C 0.742188 -1.972656 2.835938 0.121094 5.414062 0.121094 Z M 5.414062 -0.847656 C 3.367188 -0.847656 1.714844 -2.488281 1.714844 -4.550781 C 1.714844 -6.613281 3.367188 -8.25 5.414062 -8.25 C 7.476562 -8.25 9.117188 -6.613281 9.117188 -4.550781 C 9.117188 -2.488281 7.476562 -0.847656 5.414062 -0.847656 Z M 5.414062 -0.847656 "/></g></g></g><g fill="#181818" fill-opacity="1"><g transform="translate(274.452401, 226.612692)"><g><path d="M 4.792969 -4.15625 C 5.992188 -4.324219 6.902344 -5.324219 6.902344 -6.550781 C 6.902344 -7.976562 5.765625 -9.101562 4.367188 -9.101562 L 1.105469 -9.101562 L 1.105469 0 L 2.078125 0 L 2.078125 -4.109375 L 3.792969 -4.109375 L 6.371094 0 L 7.476562 0 Z M 2.078125 -5.035156 L 2.078125 -8.128906 L 4.308594 -8.128906 C 5.21875 -8.128906 5.929688 -7.492188 5.929688 -6.582031 C 5.929688 -5.65625 5.234375 -5.035156 4.308594 -5.035156 Z M 2.078125 -5.035156 "/></g></g></g><g fill="#181818" fill-opacity="1"><g transform="translate(291.4713, 226.612692)"><g><path d="M 6.160156 -8.160156 L 6.160156 -9.101562 L 1.183594 -9.101562 L 1.183594 0 L 6.160156 0 L 6.160156 -0.941406 L 2.152344 -0.941406 L 2.152344 -4.082031 L 5.640625 -4.082031 L 5.640625 -5.019531 L 2.152344 -5.019531 L 2.152344 -8.160156 Z M 6.160156 -8.160156 "/></g></g></g><g fill="#181818" fill-opacity="1"><g transform="translate(55.70022, 190.412749)"><g><path d="M 12.828125 0.4375 C 9.453125 0.4375 6.75 -0.625 4.71875 -2.75 C 2.6875 -4.875 1.671875 -7.785156 1.671875 -11.484375 L 1.671875 -32.84375 C 1.671875 -37.4375 2.585938 -40.898438 4.421875 -43.234375 C 6.253906 -45.578125 9.128906 -46.75 13.046875 -46.75 C 16.460938 -46.75 19.210938 -45.8125 21.296875 -43.9375 C 23.378906 -42.070312 24.421875 -39.378906 24.421875 -35.859375 L 24.421875 -27.875 L 15.203125 -27.875 L 15.203125 -34.71875 C 15.203125 -36.050781 15.039062 -36.96875 14.71875 -37.46875 C 14.394531 -37.976562 13.835938 -38.234375 13.046875 -38.234375 C 12.222656 -38.234375 11.65625 -37.941406 11.34375 -37.359375 C 11.039062 -36.785156 10.890625 -35.941406 10.890625 -34.828125 L 10.890625 -11.59375 C 10.890625 -10.375 11.066406 -9.484375 11.421875 -8.921875 C 11.785156 -8.367188 12.328125 -8.09375 13.046875 -8.09375 C 14.484375 -8.09375 15.203125 -9.257812 15.203125 -11.59375 L 15.203125 -19.953125 L 24.53125 -19.953125 L 24.53125 -11.21875 C 24.53125 -3.445312 20.628906 0.4375 12.828125 0.4375 Z M 12.828125 0.4375 "/></g></g></g><g fill="#181818" fill-opacity="1"><g transform="translate(82.609382, 190.412749)"><g><path d="M 7.65625 0 L 7.65625 -15.265625 L 0.265625 -46.3125 L 9.4375 -46.3125 L 12.03125 -30.625 L 14.609375 -46.3125 L 23.78125 -46.3125 L 16.390625 -15.265625 L 16.390625 0 Z M 7.65625 0 "/></g></g></g><g fill="#181818" fill-opacity="1"><g transform="translate(108.00861, 190.412749)"><g><path d="M 2.046875 -46.3125 L 14.609375 -46.3125 C 17.992188 -46.3125 20.445312 -45.484375 21.96875 -43.828125 C 23.5 -42.179688 24.265625 -39.488281 24.265625 -35.75 L 24.265625 -33.703125 C 24.265625 -29.273438 22.679688 -26.632812 19.515625 -25.78125 C 21.460938 -25.269531 22.828125 -24.097656 23.609375 -22.265625 C 24.398438 -20.429688 24.796875 -18.003906 24.796875 -14.984375 C 24.796875 -10.066406 24.054688 -6.335938 22.578125 -3.796875 C 21.109375 -1.265625 18.453125 0 14.609375 0 L 2.046875 0 Z M 13 -28.90625 C 13.789062 -28.90625 14.328125 -29.203125 14.609375 -29.796875 C 14.898438 -30.390625 15.046875 -31.222656 15.046875 -32.296875 L 15.046875 -36.9375 C 15.046875 -38.445312 14.378906 -39.203125 13.046875 -39.203125 L 11.109375 -39.203125 L 11.109375 -28.90625 Z M 12.03125 -8.140625 C 14.4375 -8.140625 15.640625 -9.289062 15.640625 -11.59375 L 15.640625 -17.359375 C 15.640625 -18.765625 15.429688 -19.828125 15.015625 -20.546875 C 14.597656 -21.265625 13.867188 -21.625 12.828125 -21.625 L 11.109375 -21.625 L 11.109375 -8.203125 Z M 12.03125 -8.140625 "/></g></g></g><g fill="#181818" fill-opacity="1"><g transform="translate(135.187397, 190.412749)"><g><path d="M 2.046875 0 L 2.046875 -46.3125 L 20.59375 -46.3125 L 20.59375 -37.375 L 11.484375 -37.375 L 11.484375 -28.359375 L 20.21875 -28.359375 L 20.21875 -19.625 L 11.484375 -19.625 L 11.484375 -9 L 21.1875 -9 L 21.1875 0 Z M 2.046875 0 "/></g></g></g><g fill="#181818" fill-opacity="1"><g transform="translate(158.753137, 190.412749)"><g><path d="M 2.046875 -46.3125 L 16.28125 -46.3125 C 18.550781 -46.3125 20.304688 -45.800781 21.546875 -44.78125 C 22.785156 -43.757812 23.617188 -42.320312 24.046875 -40.46875 C 24.484375 -38.613281 24.703125 -36.25 24.703125 -33.375 C 24.703125 -30.75 24.359375 -28.695312 23.671875 -27.21875 C 22.984375 -25.75 21.796875 -24.726562 20.109375 -24.15625 C 21.515625 -23.863281 22.53125 -23.160156 23.15625 -22.046875 C 23.789062 -20.929688 24.109375 -19.425781 24.109375 -17.53125 L 24 0 L 14.9375 0 L 14.9375 -18.125 C 14.9375 -19.414062 14.679688 -20.238281 14.171875 -20.59375 C 13.671875 -20.957031 12.757812 -21.140625 11.4375 -21.140625 L 11.4375 0 L 2.046875 0 Z M 13.703125 -29.171875 C 14.992188 -29.171875 15.640625 -30.570312 15.640625 -33.375 C 15.640625 -34.601562 15.582031 -35.519531 15.46875 -36.125 C 15.363281 -36.738281 15.164062 -37.160156 14.875 -37.390625 C 14.59375 -37.628906 14.179688 -37.75 13.640625 -37.75 L 11.484375 -37.75 L 11.484375 -29.171875 Z M 13.703125 -29.171875 "/></g></g></g><path stroke-linecap="butt" transform="matrix(1.011211, 0, 0, 1.011211, 190.533626, 131.762511)" fill="none" stroke-linejoin="miter" d="M 5.598918 58.001299 L 0.689117 12.194526 L 9.647281 12.194526 L 12.212275 41.100925 L 14.777269 12.194526 L 23.306646 12.194526 L 25.751889 41.100925 L 28.212583 12.194526 L 37.275047 12.194526 L 32.26481 58.001299 L 21.274739 58.001299 L 18.984014 35.916856 L 16.797588 58.001299 Z M 41.334999 58.001299 L 41.334999 12.194526 L 59.680114 12.194526 L 59.680114 21.036802 L 50.65628 21.036802 L 50.65628 29.956336 L 59.301545 29.956336 L 59.301545 38.58615 L 50.65628 38.58615 L 50.65628 49.093354 L 60.263418 49.093354 L 60.263418 58.001299 Z M 63.400127 58.001299 L 67.82706 12.194526 L 83.348363 12.194526 L 87.721214 58.001299 L 79.037319 58.001299 L 78.388345 50.592175 L 72.841159 50.592175 L 72.308073 58.001299 Z M 73.544215 43.287351 L 77.696878 43.287351 L 75.680422 19.982218 L 75.251635 19.982218 Z M 91.835248 12.194526 L 105.911811 12.194526 C 108.148454 12.194526 109.882916 12.704434 111.107468 13.720388 C 112.339747 14.724753 113.166417 16.146316 113.591341 17.977351 C 114.016264 19.808386 114.228726 22.145466 114.228726 24.992455 C 114.228726 27.588352 113.89265 29.616397 113.216635 31.072726 C 112.536757 32.525193 111.366286 33.537284 109.697494 34.108999 C 111.088154 34.394857 112.092519 35.090187 112.706727 36.191125 C 113.332523 37.292064 113.645422 38.787023 113.645422 40.672139 L 113.541122 58.001299 L 104.582958 58.001299 L 104.582958 40.084971 C 104.582958 38.798612 104.331867 37.979668 103.825822 37.624277 C 103.331365 37.268886 102.427436 37.091191 101.10631 37.091191 L 101.10631 58.001299 L 91.835248 58.001299 Z M 103.346817 29.148981 C 104.629314 29.148981 105.274425 27.762185 105.274425 24.992455 C 105.274425 23.779491 105.216481 22.871699 105.104456 22.272943 C 105.000156 21.666461 104.803146 21.249263 104.517288 21.02135 C 104.239157 20.789573 103.833548 20.669822 103.292736 20.669822 L 101.156528 20.669822 L 101.156528 29.148981 Z M 103.346817 29.148981 " stroke="#181818" stroke-width="1.099999" stroke-opacity="1" stroke-miterlimit="4"/></svg>